<svg xmlns="http://www.w3.org/2000/svg" xmlns:xlink="http://www.w3.org/1999/xlink" width="228" height="86" viewBox="0 0 228 86">
    <defs>
        <path id="a" d="M122.381 14.074h-3.698v-2.937h3.698v2.937z"/>
        <path id="c" d="M117.19 14.074h-3.697V11.16h3.698v2.915z"/>
        <path id="e" d="M12.362.46v25.905H.212V.459h12.15z"/>
    </defs>
    <g fill="none" fill-rule="evenodd">
        <g transform="translate(57.5 71)">
            <path fill="#FFF" d="M12.105 9.742c-.318 0-.598.112-.784.255-1.076.798-2.14 1.24-3.702 1.24-2.836 0-4.881-2.048-4.881-4.569V6.63c0-2.525 2.07-4.55 4.881-4.55 1.418 0 2.515.442 3.533 1.16.17.115.42.223.78.223.717 0 1.29-.478 1.29-1.106 0-.403-.23-.715-.507-.902C11.425.585 9.928 0 7.64 0 3.154 0 0 3.002 0 6.668v.036c0 3.706 3.22 6.63 7.537 6.63 2.39 0 3.97-.661 5.368-1.732.235-.183.428-.46.428-.807 0-.571-.577-1.053-1.228-1.053M30.245 6.704c0 2.503-1.768 4.532-4.3 4.532-2.531 0-4.332-2.065-4.332-4.571v-.036c0-2.507 1.762-4.55 4.293-4.55 2.536 0 4.34 2.083 4.34 4.586v.04zM25.945 0c-3.913 0-6.686 3.038-6.686 6.665v.04c0 3.626 2.734 6.628 6.647 6.628 3.924 0 6.687-3.038 6.687-6.668v-.036C32.593 3.002 29.862 0 25.945 0zM50.903 1.481h-6.89c-.589 0-1.05.513-1.05 1.173v11.007c0 .645.461 1.154 1.05 1.154.577 0 1.031-.509 1.031-1.154V9.33h5.105c.52 0 .945-.475.945-1.061 0-.583-.424-1.055-.945-1.055h-5.105v-3.62h5.86c.523 0 .948-.469.948-1.055 0-.59-.425-1.059-.949-1.059M68.684 1.481h-6.893c-.592 0-1.05.513-1.05 1.173v11.007c0 .645.458 1.154 1.05 1.154.577 0 1.031-.509 1.031-1.154V9.33h5.102c.52 0 .945-.475.945-1.061 0-.583-.425-1.055-.945-1.055h-5.102v-3.62h5.862c.52 0 .946-.469.946-1.055 0-.59-.425-1.059-.946-1.059M87.965 12.716h-5.897V9.132h5.054c.508 0 .925-.456.925-1.025 0-.587-.417-1.066-.925-1.066h-5.054V3.572h5.815c.504 0 .924-.453.924-1.043 0-.576-.42-1.048-.924-1.048h-6.844c-.59 0-1.039.513-1.039 1.182v10.97c0 .666.449 1.182 1.039 1.182h6.926c.504 0 .924-.457.924-1.051 0-.568-.42-1.048-.924-1.048M107.224 12.716h-5.897V9.132h5.055c.501 0 .924-.456.924-1.025 0-.587-.423-1.066-.924-1.066h-5.055V3.572h5.815c.502 0 .924-.453.924-1.043 0-.576-.422-1.048-.924-1.048h-6.84c-.59 0-1.043.513-1.043 1.182v10.97c0 .666.452 1.182 1.042 1.182h6.923c.501 0 .924-.457.924-1.051 0-.568-.423-1.048-.924-1.048"/>
            <mask id="b" fill="#fff">
                <use xlink:href="#a"/>
            </mask>
            <path fill="#FFF" d="M121.302 11.137h-.067c-.107 0-.181.044-.24.137l-.87 1.374-.857-1.374a.283.283 0 0 0-.248-.137h-.067a.266.266 0 0 0-.27.267v2.41c0 .153.119.26.27.26.141 0 .263-.107.263-.26v-1.666l.677 1.033c.07.09.13.141.233.141.114 0 .177-.055.229-.14l.68-1.041v1.674c0 .152.122.26.263.26a.26.26 0 0 0 .266-.26v-2.411a.267.267 0 0 0-.262-.267" mask="url(#b)"/>
            <mask id="d" fill="#fff">
                <use xlink:href="#c"/>
            </mask>
            <path fill="#FFF" d="M115.656 11.159h-1.923c-.133 0-.24.115-.24.255 0 .13.107.252.24.252h.688v2.137c0 .148.122.27.27.27a.273.273 0 0 0 .277-.27v-2.137h.688a.254.254 0 1 0 0-.507" mask="url(#d)"/>
        </g>
        <path fill="#FFF" d="M171.355 54.387c0 2.334-1.922 3.57-5.082 3.57h-7.71v-7.142h7.37c3.653 0 5.422 1.299 5.422 3.495v.077zm-12.791-14.341h6.692c2.968 0 4.63 1.27 4.63 3.308v.075c0 2.378-1.993 3.529-4.974 3.529h-6.348v-6.912zM176 54.873l-.002-.085c.002-3.528-2.143-5.27-5.23-6.304 1.949-1.006 3.76-2.677 3.76-5.797V42.6c0-1.74-.6-3.144-1.772-4.29-1.514-1.497-3.888-2.31-6.906-2.31h-9.515c-1.313 0-2.328 1.001-2.328 2.31L154 59.695C154.007 61 155.022 62 156.335 62h9.891c5.891 0 9.774-2.489 9.774-7.127zM186.594 45.6c2.987 0 4.7 2.211 5.004 5.035h-10.116c.408-2.97 2.348-5.036 5.112-5.036M193 56.333c-.503 0-.81.146-1.148.406-1.264 1.01-2.766 1.678-4.661 1.678-2.905-.014-5.19-1.746-5.683-4.873h12.357c1.17 0 2.134-.874 2.134-2.103 0-4.436-3.104-9.443-9.37-9.441-5.637 0-9.63 4.5-9.63 9.985v.063c0 5.923 4.397 9.952 10.123 9.952 3.041 0 5.294-.983 7.08-2.545.344-.322.596-.794.596-1.335 0-1.019-.787-1.775-1.798-1.787M214 55.94v-.08c0-3.473-3.316-4.751-6.254-5.632-2.358-.728-4.53-1.319-4.53-2.744v-.067c-.012-1.095 1.02-1.911 2.813-1.911 1.417 0 3.09.512 4.732 1.323.296.14.529.22.914.224 1.07-.005 1.893-.774 1.893-1.802 0-.761-.447-1.352-1.1-1.67-1.94-.99-4.193-1.581-6.328-1.581-3.993 0-7.162 2.233-7.162 5.888v.072c0 3.689 3.32 4.86 6.291 5.667 2.365.7 4.495 1.202 4.5 2.699l-.005.083c.005 1.278-1.144 2.083-3.127 2.083-1.825 0-3.84-.621-5.788-1.866a1.991 1.991 0 0 0-.995-.248c-1.067 0-1.854.798-1.854 1.788 0 .728.37 1.273.871 1.53 2.313 1.54 5.105 2.304 7.654 2.304 4.197 0 7.475-2.011 7.475-6.06"/>
        <g transform="translate(215 36)">
            <mask id="f" fill="#fff">
                <use xlink:href="#e"/>
            </mask>
            <path fill="#FFF" d="M10.514 22.18c-.14 0-.571.12-1.075.12-1.452 0-2.315-.727-2.315-2.494v-9.772h2.891c1.045 0 1.904-.856 1.904-1.956 0-1.095-.859-1.966-1.904-1.966h-2.89v-3.38C7.124 1.485 6.148.46 4.967.46 3.75.46 2.782 1.485 2.784 2.73v3.383h-.71c-1.045 0-1.861.871-1.861 1.966 0 1.1.816 1.956 1.862 1.956h.707v10.484c0 4.371 2.258 5.847 5.446 5.847a8.422 8.422 0 0 0 2.984-.528 1.974 1.974 0 0 0 1.15-1.772c0-1.056-.872-1.885-1.848-1.885" mask="url(#f)"/>
        </g>
        <path fill="#FFF" d="M11.214 46.48c-4.832-1.148-5.985-2.009-5.985-3.94v-.073c0-1.652 1.505-2.97 4.09-2.97 1.972 0 3.825.641 5.766 1.892.357.214.719.326 1.15.326 1.144 0 2.077-.9 2.077-2.041 0-.866-.471-1.475-.968-1.76-2.259-1.51-4.805-2.333-7.957-2.333-4.984 0-8.556 2.98-8.556 7.28v.072c0 4.625 3.003 6.205 8.344 7.488 4.657 1.073 5.653 2.046 5.653 3.834v.072c0 1.867-1.715 3.152-4.438 3.152-2.725 0-4.944-.928-7.018-2.573-.287-.22-.684-.397-1.29-.397C.93 54.507-.003 55.407 0 56.551c0 .716.362 1.33.856 1.677 2.803 2.089 6.025 3.167 9.434 3.167 5.264-.01 8.948-2.805 8.948-7.497v-.07c0-4.16-2.723-6.055-8.024-7.348M31.591 45.596c2.98-.002 4.703 2.216 5.005 5.043H26.475c.418-2.97 2.36-5.045 5.116-5.043m8.21 12.531c0-1.024-.784-1.785-1.793-1.785-.525 0-.817.14-1.157.397-1.266 1.02-2.761 1.672-4.664 1.672-2.917 0-5.187-1.74-5.68-4.864l12.357.005c1.154-.005 2.136-.877 2.136-2.106C41 47.008 37.901 42 31.628 42 25.98 42 22 46.502 22 51.99v.063c0 5.918 4.402 9.956 10.111 9.947 3.06.01 5.301-.972 7.093-2.535.338-.33.598-.794.598-1.338M56.904 54.643c0 2.446-2.175 4.134-5.03 4.134-2.065 0-3.664-1.064-3.664-2.928v-.071c0-2.013 1.636-3.226 4.414-3.226 1.718 0 3.18.331 4.28.765v1.326zM61 59.656v-9.524c0-2.527-.643-4.58-2.028-5.97-1.319-1.392-3.414-2.167-6.239-2.162-2.453 0-4.272.443-6.05 1.14-.65.26-1.181.95-1.181 1.761 0 1.023.816 1.827 1.812 1.827.214 0 .436-.043.682-.112 1.177-.47 2.526-.766 4.162-.766 3.035 0 4.674 1.476 4.674 4.208v.475c-1.455-.475-2.96-.804-5.057-.804-4.6 0-7.775 2.053-7.775 6.232v.07C44 59.913 47.14 62 50.665 62c2.885 0 4.84-1.25 6.13-2.818v.732c0 .985.858 1.871 2.1 1.871 1.179 0 2.105-.922 2.105-2.129zM72.986 45.607c1.095 0 2.014-.867 2.014-1.963 0-1.094-.919-1.971-2.014-1.971h-3.63v-3.4A2.281 2.281 0 0 0 67.075 36c-1.306 0-2.334 1.022-2.332 2.274l-.002 3.399h-.758c-1.1 0-1.984.877-1.984 1.97 0 1.097.874 1.964 1.984 1.964h.758l.002 10.52c0 4.393 2.404 5.873 5.794 5.873a9.322 9.322 0 0 0 3.166-.53c.655-.273 1.222-.95 1.222-1.785 0-1.052-.912-1.887-1.94-1.887-.156 0-.613.106-1.15.113-1.557-.007-2.473-.722-2.48-2.495v-9.81h3.63zM82.065 36c-1.288-.002-2.325 1.022-2.325 2.276v3.399h-.767A1.962 1.962 0 0 0 77 43.645c0 1.096.876 1.96 1.973 1.96h.767l.002 10.523c0 4.39 2.408 5.872 5.796 5.872 1.22 0 2.169-.195 3.162-.53.647-.275 1.218-.953 1.218-1.788 0-1.051-.913-1.884-1.943-1.884-.154 0-.608.12-1.144.12-1.561-.014-2.475-.728-2.475-2.502v-9.81h3.619c1.11 0 2.025-.852 2.025-1.96 0-1.097-.916-1.971-2.025-1.971h-3.619v-3.4A2.282 2.282 0 0 0 82.066 36M93 59.806c0 1.24.902 2.194 1.98 2.194 1.126 0 2.02-.955 2.02-2.194V37.183C97 35.988 96.106 35 94.98 35c-1.116 0-1.98.988-1.98 2.183v22.623zM104.48 50.634c.41-2.977 2.353-5.04 5.12-5.042 2.973.002 4.693 2.216 4.991 5.042H104.48zM109.628 42c-5.63 0-9.629 4.5-9.629 9.983v.067c0 5.919 4.416 9.95 10.115 9.95 3.055 0 5.3-.98 7.08-2.545.338-.324.603-.794.607-1.337a1.75 1.75 0 0 0-1.795-1.775c-.52-.01-.81.14-1.158.397-1.268 1.01-2.76 1.67-4.664 1.661-2.908 0-5.176-1.739-5.662-4.856h12.342c1.154 0 2.135-.876 2.135-2.105 0-4.435-3.104-9.438-9.371-9.44zM130.222 47.49v-.071c0-1.1 1.022-1.907 2.816-1.907 1.415 0 3.093.507 4.728 1.317.306.145.534.221.904.221 1.08 0 1.918-.77 1.918-1.79 0-.772-.464-1.358-1.097-1.681-1.943-.99-4.204-1.579-6.338-1.579-4.006 0-7.173 2.23-7.173 5.893v.071c0 3.69 3.323 4.86 6.294 5.667 2.348.7 4.495 1.205 4.495 2.702v.076c.002 1.286-1.137 2.093-3.12 2.093-1.834 0-3.844-.621-5.79-1.869a2.225 2.225 0 0 0-1.005-.26c-1.062 0-1.854.808-1.854 1.798 0 .729.377 1.274.874 1.534A14.041 14.041 0 0 0 133.53 62c4.199.01 7.47-2.005 7.47-6.057v-.079c0-3.474-3.313-4.752-6.24-5.633-2.37-.729-4.538-1.32-4.538-2.74zM121.983 36c-1.644 0-2.983 1.528-2.983 3.424 0 2.46 3.012 5.576 3.012 5.576S125 41.884 125 39.41c0-1.882-1.357-3.41-3.017-3.41M76.44 19h3.139c.231 0 .421-.205.421-.467 0-.261-.19-.472-.421-.472H76.89v-1.61h2.336c.232 0 .416-.212.416-.473 0-.256-.187-.473-.416-.473H76.89v-1.554h2.654c.232 0 .417-.217.417-.476 0-.261-.185-.475-.417-.475H76.44c-.24 0-.44.229-.44.505v4.993c0 .28.2.502.44.502M80.175 18.225c.591.523 1.237.775 1.969.775C83.237 19 84 18.286 84 17.253c0-1.156-.936-1.53-1.746-1.726-1.127-.269-1.216-.55-1.216-.905 0-.42.369-.708.894-.708.44 0 .803.139 1.187.442.076.064.16.09.261.09.233 0 .427-.211.427-.474a.532.532 0 0 0-.189-.397c-.499-.396-1.014-.575-1.67-.575-1.04 0-1.794.708-1.794 1.689 0 1.168.863 1.538 1.794 1.76 1.08.252 1.16.53 1.16.883 0 .45-.376.754-.943.754-.573 0-1.004-.182-1.451-.595a.373.373 0 0 0-.28-.128c-.246 0-.434.214-.434.483 0 .16.065.301.175.38M84.395 13.947h1.19v4.551c0 .28.186.502.413.502.231 0 .417-.221.417-.502v-4.55h1.19c.217 0 .395-.213.395-.473S87.82 13 87.605 13h-3.21c-.215 0-.395.215-.395.475s.178.472.395.472M90.765 13.656h.491c.568 0 .951.338.951.853 0 .497-.383.832-.951.832h-.49v-1.685zM90.388 16h.868c1.01 0 1.744-.633 1.744-1.509 0-.863-.735-1.491-1.744-1.491h-.868c-.219 0-.388.156-.388.353v2.294c0 .194.17.353.388.353zM134.297 14.253l.251-.18v4.43c0 .278.102.497.227.497s.225-.22.225-.497v-5.018c0-.272-.1-.485-.233-.485-.06 0-.122.035-.186.079l-.422.315c-.102.073-.159.237-.159.439 0 .312.155.522.297.42M138.912 13.901c.63 0 1.09.446 1.09 1.063v.017c0 .52-.394 1.054-1.064 1.054-.619 0-1.05-.418-1.05-1.034 0-.547.351-1.1 1.024-1.1m-.037 3.02a1.6 1.6 0 0 0 1.206-.518c-.063.55-.24 1.016-.502 1.316-.218.242-.48.368-.774.368-.337 0-.644-.138-.984-.443-.315-.216-.691.029-.691.386 0 .158.07.29.195.391.472.398.94.579 1.467.579 1.299 0 2.208-1.287 2.208-3.144 0-1.034-.21-1.745-.66-2.243a1.823 1.823 0 0 0-1.408-.613c-1.1 0-1.932.872-1.932 2.047 0 1.085.787 1.874 1.875 1.874M142.336 13.941h1.789l-1.546 4.306-.002.015a.927.927 0 0 0-.044.263c0 .268.152.475.355.475.14 0 .263-.121.33-.325l1.703-4.849a.989.989 0 0 0 .079-.366c0-.271-.14-.46-.343-.46h-2.32c-.182 0-.337.21-.337.47 0 .262.148.471.336.471M148.995 13.918c.783 0 1.206 1.073 1.206 2.083v.015c0 1.027-.409 2.069-1.192 2.069-.787 0-1.212-1.073-1.212-2.098 0-1.03.41-2.069 1.198-2.069m0 5.082c1.143 0 2.005-1.29 2.005-3.013 0-1.732-.836-2.987-1.99-2.987-1.148 0-2.01 1.292-2.01 3.001v.015c0 1.732.839 2.984 1.995 2.984M90.3 17.468h2.4c.165 0 .3-.104.3-.234S92.865 17 92.7 17h-2.4c-.167 0-.3.104-.3.234s.133.234.3.234M115.836 22.861c1.59-.547 2.504-2.497 2.046-4.359-.605-2.432-4.254-4.502-4.254-4.502s-2.123 4.04-1.52 6.467c.46 1.863 2.134 2.93 3.728 2.394"/>
        <path fill="#FFF" d="M124.22 9.384c.202.422.37.851.513 1.304 1.704 5.404-1.638 11.07-7.46 12.647-5.82 1.58-11.918-1.52-13.625-6.928-.13-.422-.22-.847-.301-1.27l20.874-5.753zm-6.226 16.272c7.207-1.948 11.343-8.948 9.242-15.633-2.095-6.69-9.629-10.528-16.83-8.58-7.202 1.946-11.341 8.942-9.24 15.627 2.098 6.687 9.629 10.53 16.828 8.586z"/>
    </g>
</svg>
